<?xml version="1.0" standalone="no"?>
<!DOCTYPE svg PUBLIC "-//W3C//DTD SVG 20010904//EN"
 "http://www.w3.org/TR/2001/REC-SVG-20010904/DTD/svg10.dtd">
<svg version="1.0" xmlns="http://www.w3.org/2000/svg"
 width="700.000000pt" height="700.000000pt" viewBox="0 0 700.000000 700.000000"
 preserveAspectRatio="xMidYMid meet">
<metadata>
Created by potrace 1.14, written by Peter Selinger 2001-2017
</metadata>
<g transform="translate(0.000000,700.000000) scale(0.100000,-0.100000)"
fill="#000000" stroke="none">
<path d="M1835 5902 c-178 -15 -382 -72 -535 -150 -256 -129 -483 -350 -619
-603 -121 -225 -171 -440 -166 -714 5 -275 85 -532 237 -755 69 -102 78 -114
99 -126 9 -5 62 -53 118 -106 l102 -97 -41 -78 c-132 -255 -329 -494 -535
-649 -41 -31 -75 -59 -76 -63 0 -3 -2 -16 -5 -28 -2 -13 5 -33 20 -49 20 -24
30 -27 87 -27 137 0 252 11 424 39 93 15 269 76 380 131 176 87 295 181 440
348 l69 80 106 1 c58 1 132 2 165 2 33 1 67 1 75 2 8 0 22 1 30 3 8 2 33 7 55
11 53 10 204 62 281 96 55 25 212 116 224 129 3 3 30 25 60 47 282 211 497
591 537 947 14 122 8 344 -11 437 -3 14 -8 39 -11 55 -15 75 -71 230 -121 330
-109 221 -295 430 -503 563 -129 83 -341 170 -476 196 -16 4 -41 9 -55 11 -78
15 -271 25 -355 17z"/>
<path d="M4919 4415 c-2 -1 -26 -5 -54 -8 -142 -15 -311 -68 -465 -146 -388
-196 -678 -587 -756 -1021 -21 -114 -24 -396 -5 -481 6 -30 14 -69 17 -85 5
-31 48 -170 67 -219 27 -69 110 -221 157 -290 160 -230 430 -436 695 -529 149
-52 190 -59 394 -61 l194 -2 41 -49 c152 -180 286 -290 467 -380 126 -64 266
-110 419 -139 97 -19 230 -31 352 -34 91 -2 99 -1 122 22 46 46 25 86 -90 170
-172 126 -409 422 -515 643 l-30 65 46 41 c26 23 73 67 105 97 32 31 72 67 88
81 72 62 206 306 256 470 44 142 60 250 60 420 0 177 -6 226 -41 364 -55 215
-162 419 -304 581 -55 64 -64 72 -150 148 -147 131 -409 268 -574 302 -22 5
-47 10 -55 12 -66 17 -196 31 -306 31 -73 0 -134 -1 -135 -3z"/>
</g>
</svg>
